<?xml version="1.0" encoding="UTF-8"?>
<svg width="82px" height="34px" viewBox="0 0 82 34" version="1.1" xmlns="http://www.w3.org/2000/svg" xmlns:xlink="http://www.w3.org/1999/xlink">
    <!-- Generator: Sketch 42 (36781) - http://www.bohemiancoding.com/sketch -->
    <title>sc/inside</title>
    <desc>Created with Sketch.</desc>
    <defs></defs>
    <g id="Symbols" stroke="none" stroke-width="1" fill="none" fill-rule="evenodd">
        <g id="sc/inside">
            <g transform="translate(23.000000, -1.000000)">
                <path d="M16.0774424,13.1445897 L14.7076841,19.481281 L12.024957,29.0649243 C11.6016873,30.5770085 13.7755822,31.2398291 14.1988519,29.7269549 L16.6498786,20.9704549 L20.0822247,24.6266333 L20.9794959,29.7198448 C21.0923173,30.3613351 21.6829261,30.7863619 22.2977651,30.66865 C22.9126041,30.5509381 23.3199727,29.9347282 23.2071513,29.293238 L22.2500621,23.8611111 C22.2091738,23.6304274 22.1039243,23.417124 21.9464286,23.2496413 L18.5988879,19.6740441 L19.6142808,14.8470669 L20.3328549,16.5179436 C20.4259894,16.7344071 20.6077152,16.8955697 20.8273005,16.9564007 L24.074892,17.8578051 C24.4777175,17.9699869 24.8911437,17.7195529 24.9986648,17.2992661 C25.1061859,16.8789794 24.8661564,16.4476325 24.4633309,16.3354507 L21.559504,15.5201577 L19.9678889,11.8189485 C19.8717257,11.5953749 19.6877283,11.4413224 19.4779864,11.3820715 L19.4757149,11.3757514 L19.4219543,11.3686413 C19.3886379,11.3615312 19.3538071,11.3575811 19.3197335,11.3560011 L17.0822346,11.0668565 C16.9860714,11.0328859 16.8823362,11.0194557 16.7801155,11.0273558 L16.7528566,11.0241958 L16.7490706,11.0305159 C16.6566934,11.0423661 16.5650733,11.0723865 16.4787535,11.1213673 L13.2697787,12.9510366 C13.0872958,13.0553183 12.9540302,13.2322811 12.901784,13.4424244 L12.009056,16.9919512 C11.9030493,17.413028 12.1445932,17.8435848 12.5481759,17.9533966 C12.9517586,18.0632084 13.3644276,17.8119843 13.4696771,17.3909076 L14.2935008,14.162126 L16.0789568,13.1437997 L16.0774424,13.1445897 Z M18.8003006,10.1670321 C20.0511799,10.1670321 21.0650584,9.10920514 21.0650584,7.80410426 C21.0650584,6.49900339 20.0511799,5.44117647 18.8003006,5.44117647 C17.5494214,5.44117647 16.5355428,6.49900339 16.5355428,7.80410426 C16.5355428,9.10920514 17.5494214,10.1670321 18.8003006,10.1670321 L18.8003006,10.1670321 L18.8003006,10.1670321 Z" id="Shape" fill="#FFFFFF"></path>
                <rect id="@bounds" opacity="0.5" x="0" y="0" width="37" height="37"></rect>
            </g>
        </g>
    </g>
</svg>