<?xml version="1.0" encoding="UTF-8"?>
<svg width="32px" height="74px" viewBox="0 0 32 74" version="1.1" xmlns="http://www.w3.org/2000/svg" xmlns:xlink="http://www.w3.org/1999/xlink">
    <!-- Generator: Sketch 41.2 (35397) - http://www.bohemiancoding.com/sketch -->
    <title>Left mouse/Play button</title>
    <desc>Created with Sketch.</desc>
    <defs></defs>
    <g id="Assets" stroke="none" stroke-width="1" fill="none" fill-rule="evenodd">
        <g id="Slices" transform="translate(-617.000000, -25.000000)">
            <g id="Left-mouse/Play-button" transform="translate(591.000000, 16.000000)">
                <g id="mouse/drag" stroke-width="1">
                    <g id="Mouse" transform="translate(26.537313, 37.594595)" fill="#FFFFFF">
                        <path d="M15.0391642,5.40372594 C14.5905672,5.73533296 14.2850746,6.38004826 14.2850746,7.11657212 L14.2850746,12.7895187 C14.2850746,13.5253574 14.5905672,14.1700727 15.0391642,14.5016797 C15.0589552,14.5153825 15.0792537,14.5263447 15.0985373,14.5393623 L15.0985373,14.5016797 C15.286806,14.6524102 15.504,14.7401079 15.7313433,14.7401079 C15.959194,14.7401079 16.1758806,14.6524102 16.3636418,14.5016797 L16.3636418,14.5393623 C16.3834328,14.5263447 16.4042388,14.5153825 16.4230149,14.5016797 C16.8716119,14.1700727 17.1771045,13.5253574 17.1771045,12.7895187 L17.1771045,7.11657212 C17.1771045,6.38004826 16.8716119,5.73533296 16.4230149,5.40372594 C16.4042388,5.39002317 16.3834328,5.37906095 16.3636418,5.36604332 L16.3636418,5.40372594 C16.1758806,5.25368061 15.959194,5.16461261 15.7313433,5.16461261 C15.504,5.16461261 15.286806,5.25368061 15.0985373,5.40372594 L15.0985373,5.36604332 C15.0792537,5.37906095 15.0589552,5.39002317 15.0391642,5.40372594" id="Fill-1" opacity="0.5"></path>
                        <path d="M0.371462687,13.0691892 L0.371462687,15.8929009 C4.74122388,18.3437838 9.75952239,19.7796036 15.0985373,19.885045 L15.0985373,16.4064865 C15.0792537,16.4014414 15.0589552,16.3979099 15.0391642,16.3923604 C13.8806269,16.0871351 13.0209851,15.0322162 13.0209851,13.7881081 L13.0209851,6.60194595 C13.0209851,5.35682883 13.8806269,4.30241441 15.0391642,3.99718919 C15.0589552,3.99214414 15.0792537,3.98810811 15.0985373,3.98356757 L15.0985373,0.49390991 L13.0209851,0.49390991 C6.06468657,0.49390991 0.371462687,6.15344144 0.371462687,13.0691892" id="Fill-2"></path>
                        <path d="M18.4432239,0.49390991 L16.3636418,0.49390991 L16.3636418,3.98356757 C16.3834328,3.98810811 16.4042388,3.99214414 16.4230149,3.99718919 C17.5820597,4.30241441 18.4432239,5.35682883 18.4432239,6.60194595 L18.4432239,13.7881081 C18.4432239,15.0322162 17.5820597,16.0871351 16.4230149,16.3923604 C16.4042388,16.3979099 16.3834328,16.4014414 16.3636418,16.4064865 L16.3636418,19.885045 C21.7036716,19.7796036 26.7219701,18.3437838 31.0912239,15.8929009 L31.0912239,13.0691892 C31.0912239,6.15344144 25.3990149,0.49390991 18.4432239,0.49390991" id="Fill-3" opacity="0.5"></path>
                        <path d="M0.371462687,17.3267027 L0.371462687,32.8296216 C0.371462687,39.7468829 6.06468657,45.4054054 13.0209851,45.4054054 L18.4432239,45.4054054 C25.3990149,45.4054054 31.0912239,39.7468829 31.0912239,32.8296216 L31.0912239,17.3267027 C26.5118806,19.768 21.2804478,21.1533694 15.7313433,21.1533694 C10.1822388,21.1533694 4.95080597,19.768 0.371462687,17.3267027" id="Fill-4" opacity="0.5"></path>
                    </g>
                    <rect id="@bounds" opacity="0.5" x="0" y="0" width="84" height="84"></rect>
                </g>
                <polygon id="Triangle-1-Copy-2" fill="#FFFFFF" points="35 31 35 9 53 20"></polygon>
            </g>
        </g>
    </g>
</svg>