<?xml version="1.0" encoding="UTF-8"?>
<svg width="61px" height="20px" viewBox="0 0 61 20" version="1.1" xmlns="http://www.w3.org/2000/svg" xmlns:xlink="http://www.w3.org/1999/xlink">
    <!-- Generator: Sketch 41.2 (35397) - http://www.bohemiancoding.com/sketch -->
    <title>spacebar</title>
    <desc>Created with Sketch.</desc>
    <defs>
        <rect id="path-1" x="-1.13686838e-13" y="0.841463415" width="60" height="19" rx="2.15999996"></rect>
        <mask id="mask-2" maskContentUnits="userSpaceOnUse" maskUnits="objectBoundingBox" x="0" y="0" width="60" height="19" fill="white">
            <use xlink:href="#path-1"></use>
        </mask>
    </defs>
    <g id="Desktop---Guided-Tour" stroke="none" stroke-width="1" fill="none" fill-rule="evenodd">
        <g id="spacebar">
            <g transform="translate(0.000000, -1.000000)" id="key/left">
                <g transform="translate(0.789773, 0.810976)">
                    <use id="Rectangle-5" stroke="#EDEDED" mask="url(#mask-2)" stroke-width="2.39999986" transform="translate(30.000000, 10.341463) scale(-1, 1) translate(-30.000000, -10.341463) " xlink:href="#path-1"></use>
                    <path d="M12.1897834,11.7567002 C12.1897834,12.4549459 11.9373445,13.002792 11.4324592,13.4002549 C10.9275738,13.7977178 10.231129,13.9964463 9.34310371,13.9964463 C8.45507843,13.9964463 7.72819768,13.8585896 7.16243964,13.5828721 L7.16243964,12.3690049 C7.52051435,12.5373 7.90096302,12.6697857 8.30379707,12.7664658 C8.70663111,12.863146 9.08170874,12.9114854 9.42904121,12.9114854 C9.93750729,12.9114854 10.3125849,12.8148067 10.5542853,12.6214463 C10.7959858,12.428086 10.9168342,12.1684857 10.9168342,11.8426377 C10.9168342,11.5490165 10.8058327,11.3001583 10.5838264,11.0960557 C10.36182,10.8919531 9.90349129,10.6502563 9.20882636,10.370958 C8.49267695,10.0809175 7.98779919,9.74970338 7.69417793,9.37730569 C7.40055667,9.00490799 7.25374824,8.55732132 7.25374824,8.03453225 C7.25374824,7.37925554 7.48649331,6.86363569 7.95199043,6.48765725 C8.41748754,6.11167881 9.04231854,5.92369241 9.82650214,5.92369241 C10.578459,5.92369241 11.3268239,6.0884043 12.0716193,6.41783303 L11.6634162,7.46519631 C10.9651705,7.17157505 10.3421299,7.02476663 9.79427558,7.02476663 C9.37890892,7.02476663 9.06380791,7.11517913 8.84896308,7.29600686 C8.63411826,7.47683459 8.52669746,7.71584587 8.52669746,8.01304788 C8.52669746,8.21715046 8.56966578,8.39170926 8.65560371,8.53672952 C8.74154164,8.68174977 8.88297902,8.81871129 9.07992011,8.94761819 C9.2768612,9.07652508 9.63134984,9.24660802 10.1433967,9.45787209 C10.719897,9.69778215 11.1424188,9.92157548 11.4109748,10.1292588 C11.6795308,10.3369421 11.876469,10.5714776 12.0017951,10.8328721 C12.1271213,11.0942666 12.1897834,11.4022063 12.1897834,11.7567002 Z M16.4269445,13.9964463 C15.6749876,13.9964463 15.0913346,13.726104 14.6759679,13.1854112 L14.6007726,13.1854112 C14.6509031,13.6867157 14.6759679,13.9910747 14.6759679,14.0984971 L14.6759679,16.5316026 L13.4137609,16.5316026 L13.4137609,7.94859475 L14.4342687,7.94859475 C14.4629147,8.05959791 14.5219961,8.32456922 14.6115148,8.74351663 L14.6759679,8.74351663 C15.0698501,8.14195112 15.6606645,7.84117288 16.4484289,7.84117288 C17.1896435,7.84117288 17.7670303,8.10972488 18.1806066,8.64683694 C18.5941829,9.183949 18.8009679,9.93768495 18.8009679,10.9080674 C18.8009679,11.8784499 18.5906022,12.6357665 18.1698644,13.1800401 C17.7491266,13.7243136 17.1681591,13.9964463 16.4269445,13.9964463 Z M16.1207921,8.87242288 C15.6194875,8.87242288 15.2533616,9.0192313 15.0224035,9.31285256 C14.7914453,9.60647382 14.6759679,10.0755447 14.6759679,10.7200791 L14.6759679,10.9080674 C14.6759679,11.6313783 14.7905501,12.1550547 15.0197179,12.4791123 C15.2488857,12.8031699 15.6230682,12.9651963 16.1422765,12.9651963 C16.5791277,12.9651963 16.9157128,12.7861616 17.1520421,12.4280869 C17.3883714,12.0700122 17.5065343,11.5597634 17.5065343,10.8973252 C17.5065343,10.2313063 17.3892666,9.72732367 17.1547277,9.38536233 C16.9201887,9.04340098 16.575547,8.87242288 16.1207921,8.87242288 Z M23.8223087,13.8890244 L23.5698673,13.061876 L23.5268985,13.061876 C23.2404388,13.4235315 22.952193,13.6697041 22.6621524,13.8004014 C22.3721119,13.9310987 21.9997198,13.9964463 21.5449649,13.9964463 C20.9613032,13.9964463 20.5056599,13.8388958 20.1780216,13.5237901 C19.8503832,13.2086843 19.6865665,12.762888 19.6865665,12.1863877 C19.6865665,11.57408 19.9139405,11.1121705 20.3686954,10.8006455 C20.8234503,10.4891205 21.5163145,10.3190376 22.4473087,10.2903916 L23.4731876,10.2581651 L23.4731876,9.94127053 C23.4731876,9.56171134 23.3845654,9.27794139 23.2073185,9.08995217 C23.0300715,8.90196295 22.7552533,8.80796975 22.3828556,8.80796975 C22.0784921,8.80796975 21.7866656,8.85272842 21.5073673,8.94224709 C21.228069,9.03176577 20.959517,9.13739623 20.7017032,9.25914163 L20.2935001,8.35679788 C20.6157673,8.18850276 20.9684656,8.06049298 21.3516056,7.97276467 C21.7347455,7.88503637 22.0963955,7.84117288 22.4365665,7.84117288 C23.1921041,7.84117288 23.7623296,8.00588477 24.1472599,8.3353135 C24.5321902,8.66474223 24.7246524,9.18215242 24.7246524,9.88755959 L24.7246524,13.8890244 L23.8223087,13.8890244 Z M21.9424259,13.0296494 C22.4007615,13.0296494 22.7686777,12.9016397 23.0461856,12.6456162 C23.3236935,12.3895928 23.4624454,12.0306283 23.4624454,11.5687119 L23.4624454,11.0530869 L22.6997501,11.0853135 C22.1053461,11.106798 21.6729774,11.2061622 21.402631,11.3834092 C21.1322846,11.5606562 20.9971134,11.8318937 20.9971134,12.1971299 C20.9971134,12.4621052 21.0758886,12.6670999 21.2334415,12.8121201 C21.3909944,12.9571404 21.6273201,13.0296494 21.9424259,13.0296494 Z M28.7201143,13.9964463 C27.8213468,13.9964463 27.1383295,13.7341605 26.671042,13.2095811 C26.2037545,12.6850016 25.9701143,11.9321609 25.9701143,10.9510362 C25.9701143,9.95200772 26.2144966,9.183949 26.7032686,8.64683694 C27.1920406,8.10972488 27.8983323,7.84117288 28.8221651,7.84117288 C29.4487958,7.84117288 30.012755,7.95754541 30.5140596,8.19029397 L30.132712,9.20543069 C29.5991806,8.99774736 29.1587554,8.89390725 28.8114229,8.89390725 C27.7837485,8.89390725 27.269919,9.57602934 27.269919,10.940294 C27.269919,11.6063129 27.3979288,12.1067148 27.6539522,12.4415147 C27.9099756,12.7763145 28.2850532,12.9437119 28.7791963,12.9437119 C29.3413736,12.9437119 29.8731066,12.8040649 30.3744112,12.5247666 L30.3744112,13.6258408 C30.1488241,13.7583285 29.9080225,13.8532169 29.6519991,13.9105088 C29.3959757,13.9678008 29.0853505,13.9964463 28.7201143,13.9964463 Z M34.2033691,13.9964463 C33.2795364,13.9964463 32.5571315,13.7269991 32.0361328,13.1880967 C31.5151341,12.6491943 31.2546387,11.9070956 31.2546387,10.9617783 C31.2546387,9.99139589 31.4963355,9.2287082 31.9797363,8.67369241 C32.4631372,8.11867661 33.1273558,7.84117288 33.9724121,7.84117288 C34.7565957,7.84117288 35.3760557,8.07928898 35.8308105,8.55552834 C36.2855654,9.0317677 36.5129395,9.68703459 36.5129395,10.5213487 L36.5129395,11.2034776 L32.5544434,11.2034776 C32.5723471,11.7799778 32.7281073,12.2230886 33.0217285,12.5328233 C33.3153498,12.8425579 33.7289199,12.9974229 34.2624512,12.9974229 C34.6133644,12.9974229 34.9401027,12.9643015 35.2426758,12.8980576 C35.5452489,12.8318138 35.8701968,12.7217075 36.2175293,12.5677354 L36.2175293,13.5936143 C35.909585,13.7404249 35.5980647,13.844265 35.282959,13.9051377 C34.9678532,13.9660104 34.6079936,13.9964463 34.2033691,13.9964463 Z M33.9724121,8.79722756 C33.5713684,8.79722756 33.2500012,8.92434218 33.0083008,9.17857522 C32.7666004,9.43280826 32.6224774,9.80341002 32.5759277,10.2903916 L35.2722168,10.2903916 C35.2650553,9.79982928 35.1468924,9.42833234 34.9177246,9.17588967 C34.6885568,8.923447 34.3734558,8.79722756 33.9724121,8.79722756 Z M40.8199248,7.84117288 C41.5611394,7.84117288 42.1385262,8.10972488 42.5521025,8.64683694 C42.9656788,9.183949 43.1724638,9.93768495 43.1724638,10.9080674 C43.1724638,11.8820306 42.9629933,12.6402424 42.5440459,13.1827256 C42.1250984,13.7252088 41.5432358,13.9964463 40.7984404,13.9964463 C40.0464835,13.9964463 39.4628305,13.726104 39.0474638,13.1854112 L38.9615263,13.1854112 L38.7305693,13.8890244 L37.7852568,13.8890244 L37.7852568,5.53160256 L39.0474638,5.53160256 L39.0474638,7.51890725 C39.0474638,7.66571788 39.0403024,7.88414018 39.0259794,8.17418069 C39.0116565,8.4642212 39.0009144,8.64862691 38.9937529,8.72740334 L39.0474638,8.72740334 C39.4485075,8.13658008 40.0393219,7.84117288 40.8199248,7.84117288 Z M40.492288,8.87242288 C39.983822,8.87242288 39.6176961,9.02191682 39.3938994,9.3209092 C39.1701027,9.61990158 39.0546253,10.1203035 39.0474638,10.8221299 L39.0474638,10.9080674 C39.0474638,11.6313783 39.162046,12.1550547 39.3912138,12.4791123 C39.6203816,12.8031699 39.9945641,12.9651963 40.5137724,12.9651963 C40.9613658,12.9651963 41.3006365,12.787952 41.5315947,12.433458 C41.7625529,12.0789641 41.8780302,11.5669249 41.8780302,10.8973252 C41.8780302,9.54738357 41.4161208,8.87242288 40.492288,8.87242288 Z M48.1938046,13.8890244 L47.9413632,13.061876 L47.8983944,13.061876 C47.6119347,13.4235315 47.3236889,13.6697041 47.0336483,13.8004014 C46.7436078,13.9310987 46.3712157,13.9964463 45.9164608,13.9964463 C45.3327991,13.9964463 44.8771558,13.8388958 44.5495175,13.5237901 C44.2218791,13.2086843 44.0580624,12.762888 44.0580624,12.1863877 C44.0580624,11.57408 44.2854364,11.1121705 44.7401913,10.8006455 C45.1949462,10.4891205 45.8878104,10.3190376 46.8188046,10.2903916 L47.8446835,10.2581651 L47.8446835,9.94127053 C47.8446835,9.56171134 47.7560613,9.27794139 47.5788144,9.08995217 C47.4015674,8.90196295 47.1267492,8.80796975 46.7543515,8.80796975 C46.449988,8.80796975 46.1581615,8.85272842 45.8788632,8.94224709 C45.5995649,9.03176577 45.3310129,9.13739623 45.0731991,9.25914163 L44.664996,8.35679788 C44.9872632,8.18850276 45.3399615,8.06049298 45.7231015,7.97276467 C46.1062414,7.88503637 46.4678914,7.84117288 46.8080624,7.84117288 C47.5636,7.84117288 48.1338255,8.00588477 48.5187558,8.3353135 C48.9036861,8.66474223 49.0961483,9.18215242 49.0961483,9.88755959 L49.0961483,13.8890244 L48.1938046,13.8890244 Z M46.3139218,13.0296494 C46.7722574,13.0296494 47.1401736,12.9016397 47.4176815,12.6456162 C47.6951894,12.3895928 47.8339413,12.0306283 47.8339413,11.5687119 L47.8339413,11.0530869 L47.071246,11.0853135 C46.476842,11.106798 46.0444733,11.2061622 45.7741269,11.3834092 C45.5037805,11.5606562 45.3686093,11.8318937 45.3686093,12.1971299 C45.3686093,12.4621052 45.4473845,12.6670999 45.6049374,12.8121201 C45.7624903,12.9571404 45.998816,13.0296494 46.3139218,13.0296494 Z M53.709286,7.84117288 C53.963519,7.84117288 54.1729896,7.85907634 54.337704,7.89488381 L54.2141688,9.07115334 C54.0351314,9.02818438 53.8489354,9.00670022 53.6555751,9.00670022 C53.1506897,9.00670022 52.7415955,9.17141211 52.4282801,9.50084084 C52.1149648,9.83026957 51.9583094,10.2581624 51.9583094,10.7845323 L51.9583094,13.8890244 L50.6961024,13.8890244 L50.6961024,7.94859475 L51.6843836,7.94859475 L51.8508876,8.99595803 L51.9153407,8.99595803 C52.1122818,8.64146407 52.3691965,8.36037964 52.6860926,8.15269631 C53.0029887,7.94501298 53.3440498,7.84117288 53.709286,7.84117288 Z" id="Spacebar--Semibold-outlines" fill="#FFFFFF"></path>
                </g>
            </g>
        </g>
    </g>
</svg>