<?xml version="1.0" encoding="UTF-8"?>
<svg width="25px" height="51px" viewBox="0 0 25 51" version="1.1" xmlns="http://www.w3.org/2000/svg" xmlns:xlink="http://www.w3.org/1999/xlink">
    <!-- Generator: Sketch 41.2 (35397) - http://www.bohemiancoding.com/sketch -->
    <title>gesture/Play button</title>
    <desc>Created with Sketch.</desc>
    <defs></defs>
    <g id="Assets" stroke="none" stroke-width="1" fill="none" fill-rule="evenodd">
        <g id="Slices" transform="translate(-480.000000, -238.000000)">
            <g id="gesture/Play-button" transform="translate(464.000000, 230.000000)">
                <g id="gesture/drag" stroke-width="1">
                    <path d="M40.7166472,42.0687588 C40.779914,41.8306598 40.8157895,41.5722577 40.8157895,41.3010509 C40.8157895,40.2200305 40.2643259,39.3303892 39.5546952,39.2106475 C39.4611282,39.009117 39.3693792,38.8194683 39.2759334,38.6420476 C39.212303,38.4750092 39.1283108,38.3069325 39.0237145,38.1426626 C38.6173283,37.5042711 38.0132635,37.1020175 37.4847069,37.0588736 C37.313329,36.995542 37.2232768,36.9062549 37.1579495,36.7884743 C37.1023184,36.4350172 36.9612407,36.0572196 36.7312016,35.6959181 C36.2432472,34.9295945 35.5033163,34.4640094 34.8814351,34.4672394 C34.662304,34.4125597 34.4348101,34.3591489 34.177016,34.2409069 C33.1803819,33.7833969 32.4529348,31.5244553 30.6566178,31.6602318 C30.3257396,27.486231 29.4884846,24.7033332 28.9295065,22.2757382 C28.5377856,20.5744375 27.6621098,19.5147584 26.2676947,20.3463746 C24.8731584,21.1781062 26.1718249,27.7530542 25.6936877,30.9175566 C25.3018456,33.5110365 24.5882153,36.2769767 24.3147863,37.5996722 C24.1707998,37.9710098 24.0252376,38.3193911 23.8808875,38.6273972 C23.5084374,39.4229064 23.0606005,39.9312893 22.80317,40.264328 C22.6103396,40.5136168 21.7427843,40.8693811 21.7427843,40.8693811 C21.7427843,40.8693811 21.3468213,38.1824611 21.3401553,37.9692794 C21.3229448,37.4070242 21.1554453,37.155313 21.1554453,37.155313 C21.1554453,37.155313 21.5971009,36.5074621 21.5127452,35.6553121 C21.4241474,34.7625561 21.0260028,33.4875034 20.4404818,32.5561024 C19.957739,31.7882792 19.4680878,31.4903093 18.8756583,31.4206331 C18.1385151,31.333307 17.6379558,32.0410287 17.5276631,32.8973316 C17.4610027,33.4151739 17.4961509,34.144929 17.4494886,34.5031158 C17.3389535,35.3581497 16.5779337,36.1995714 16.4289779,36.7697863 C16.2360263,37.5077318 16.5166061,38.0208445 16.4276447,39.6651583 C16.3956477,40.2521001 16.596235,40.9584375 16.5831453,41.6369736 C16.5644804,42.6409348 16.4589145,43.5751044 16.5070312,43.8307378 C16.7605833,45.1860797 18.7222181,47.3265485 20.3797602,49.8713473 C21.3134911,51.3046712 22.80014,51.7072708 23.5346168,52.9750559 C23.9852414,53.7504928 24.0319037,54.8597759 24.4093229,55.9536011 C25.9740252,60.4863653 33.6219164,59.2129277 36.5270994,56.939451 C37.2175803,56.4000367 37.4804649,55.7295757 37.5284604,55.3231693 C37.5834855,54.8578148 37.6389955,54.5020506 37.6958387,54.2233455 C38.452374,53.6905066 39.4451297,51.2046558 40.0751314,48.1280563 C40.4474603,46.3098979 40.6207774,44.6382443 40.5992037,43.416141 C40.6646521,42.9131798 40.7053756,42.5068887 40.7130112,42.2454874 C40.7148292,42.1841169 40.7157988,42.1260918 40.7166472,42.0687588" id="hand" fill="#FFFFFF"></path>
                    <rect id="@bounds" opacity="0.5" x="0" y="0" width="62" height="62"></rect>
                </g>
                <path d="M22,27 L22,8 L37.5454545,17.5 L30.3122559,22.125 C30.3122559,22.125 28.6354111,17.7881149 26.3122559,18.5625 C23.9891006,19.3368851 24.4997559,25.3125 24.4997559,25.3125 L22,27 Z" id="Triangle-1-Copy-2" fill="#FFFFFF"></path>
            </g>
        </g>
    </g>
</svg>