<?xml version="1.0" encoding="UTF-8"?>
<svg width="82px" height="34px" viewBox="0 0 82 34" version="1.1" xmlns="http://www.w3.org/2000/svg" xmlns:xlink="http://www.w3.org/1999/xlink">
    <!-- Generator: Sketch 42 (36781) - http://www.bohemiancoding.com/sketch -->
    <title>sc/360</title>
    <desc>Created with Sketch.</desc>
    <defs></defs>
    <g id="Symbols" stroke="none" stroke-width="1" fill="none" fill-rule="evenodd">
        <g id="sc/360">
            <g transform="translate(23.000000, 0.000000)">
                <path d="M9.99974575,14.6220566 L10.9656433,14.6220566 C11.8398076,14.6220566 12.3740191,15.0429505 12.3740191,15.722856 C12.3740191,16.3865733 11.8074311,16.8452398 10.9926237,16.8452398 C10.1562319,16.8452398 9.60043614,16.4297419 9.55187145,15.7714207 L7.99240555,15.7714207 C8.06255454,17.2391533 9.23889906,18.1996548 10.9764355,18.1996548 C12.7517444,18.1996548 14.0360104,17.2121729 14.0360104,15.8469658 C14.0360104,14.8217114 13.366897,14.1094294 12.298474,13.9907157 L12.298474,13.8935863 C13.1672422,13.7155158 13.7338302,13.014026 13.7338302,12.1128813 C13.7338302,10.8879721 12.5844661,10.0138078 10.9872276,10.0138078 C9.28746374,10.0138078 8.19206035,10.9419329 8.1380996,12.4150616 L9.64360474,12.4150616 C9.68677335,11.7405521 10.1886084,11.3142621 10.944059,11.3142621 C11.7049057,11.3142621 12.1905525,11.7135717 12.1905525,12.3395165 C12.1905525,12.9762534 11.6887175,13.4079395 10.9494551,13.4079395 L9.99974575,13.4079395 L9.99974575,14.6220566 Z M18.2676779,18.1996548 C20.0106104,18.1996548 21.2463118,17.0502907 21.2463118,15.4314679 C21.2463118,13.942151 20.1617006,12.8467476 18.6831758,12.8467476 C17.7766351,12.8467476 17.0535609,13.2622455 16.6974199,13.9961118 L16.6002905,13.9961118 C16.5679141,12.3826851 17.2154432,11.3520346 18.2838662,11.3520346 C18.8936227,11.3520346 19.3792696,11.6757992 19.5303597,12.1884264 L21.1437863,12.1884264 C20.9225472,10.8879721 19.7731831,10.0138078 18.2946583,10.0138078 C16.2657338,10.0138078 15.0462207,11.5786698 15.0462207,14.1633901 C15.0462207,15.2318131 15.2674598,16.1275617 15.6991459,16.791279 C16.2333574,17.7032158 17.1398981,18.1996548 18.2676779,18.1996548 Z M18.2514897,16.861428 C17.4528705,16.861428 16.8431139,16.2570675 16.8431139,15.4638444 C16.8431139,14.6868095 17.4420784,14.1040333 18.2568858,14.1040333 C19.0716932,14.1040333 19.6652616,14.6868095 19.6652616,15.4800326 C19.6652616,16.2624636 19.0501089,16.861428 18.2514897,16.861428 Z M25.4348107,18.1996548 C27.3612098,18.1996548 28.5267621,16.6725654 28.5267621,14.0986372 C28.5267621,11.5139169 27.3450215,10.0138078 25.4348107,10.0138078 C23.5192038,10.0138078 22.3428593,11.5139169 22.3428593,14.0932411 C22.3428593,16.6779614 23.5084116,18.1996548 25.4348107,18.1996548 Z M25.4348107,16.8722202 C24.5444582,16.8722202 23.9940585,15.9117187 23.9940585,14.0932411 C23.9940585,12.2855557 24.5498543,11.3466385 25.4348107,11.3466385 C26.3251632,11.3466385 26.8755629,12.2801597 26.8755629,14.0932411 C26.8755629,15.9171147 26.3305593,16.8722202 25.4348107,16.8722202 Z" id="360" fill="#FFFFFF"></path>
                <path d="M17.0473261,24.3293329 C7.6152513,24.1943591 0.115453846,22.004507 0.115453846,19.3228761 C0.115453846,17.6662553 2.41518462,16.1973422 6.82703077,15.2844328 L6.82564615,16.3046684 C3.3378,17.0263106 2.22089341,17.6641196 2.22089341,18.9738016 C2.22089341,21.1626958 8.02645385,22.4084782 15.8225308,22.4084782 C15.9724452,22.4084782 16.4879096,22.4025268 17.0743454,22.3949021 L17.1092585,19.8942236 L21.7086208,23.262746 L17.0133878,26.7610346 L17.0473379,24.3293331 Z" id="Combined-Shape" fill="#FFFFFF"></path>
                <path d="M35.8270154,19.3228761 C35.8270154,21.5566188 30.5744769,23.449122 23.3846308,24.0969625 L23.3846308,22.0672348 C28.5750923,21.5995081 33.3438066,20.4766493 33.3438066,18.8641671 C33.3438066,17.7450403 31.6642846,17.273107 28.8221308,16.6091297 L28.8207462,15.4671571 C32.7579,16.386711 35.8270154,17.5312614 35.8270154,19.3228761 Z" id="Stroke-3" fill="#FFFFFF"></path>
                <path d="M30.4090909,11.6785711 C31.1893939,11.6785711 31.7727273,11.0907735 31.7727273,10.3392854 C31.7727273,9.5877973 31.1893939,8.99999968 30.4090909,8.99999968 C29.6287879,8.99999968 29.0454545,9.5877973 29.0454545,10.3392854 C29.0454545,11.0907735 29.6287879,11.6785711 30.4090909,11.6785711 L30.4090909,11.6785711 L30.4090909,11.6785711 Z M30.4289648,10.9954645 C30.0428571,10.9954645 29.7842713,10.7151998 29.7842713,10.3588139 C29.7842713,9.99896784 30.0428571,9.72562326 30.4289648,9.72562326 C30.8150724,9.72562326 31.0772006,9.99550779 31.0772006,10.3588139 C31.0772006,10.7186599 30.8150724,10.9954645 30.4289648,10.9954645 L30.4289648,10.9954645 L30.4289648,10.9954645 Z" id="°" fill="#FFFFFF"></path>
                <rect id="@bounds" opacity="0.5" x="0" y="0" width="36" height="34"></rect>
            </g>
        </g>
    </g>
</svg>