<?xml version="1.0" encoding="UTF-8"?>
<svg width="82px" height="34px" viewBox="0 0 82 34" version="1.1" xmlns="http://www.w3.org/2000/svg" xmlns:xlink="http://www.w3.org/1999/xlink">
    <!-- Generator: Sketch 42 (36781) - http://www.bohemiancoding.com/sketch -->
    <title>sc/fullscreen</title>
    <desc>Created with Sketch.</desc>
    <defs></defs>
    <g id="Symbols" stroke="none" stroke-width="1" fill="none" fill-rule="evenodd">
        <g id="sc/fullscreen">
            <g transform="translate(24.000000, 0.000000)">
                <polygon id="Shape" fill="#FFFFFF" points="28 6 28 13 26 13 26 8 21 8 21 6 26 6"></polygon>
                <polygon id="Shape" fill="#FFFFFF" transform="translate(24.500000, 24.500000) scale(1, -1) translate(-24.500000, -24.500000) " points="28 21 28 28 26 28 26 23 21 23 21 21 26 21"></polygon>
                <polygon id="Shape" fill="#FFFFFF" transform="translate(9.500000, 9.500000) scale(-1, 1) translate(-9.500000, -9.500000) " points="13 6 13 13 11 13 11 8 6 8 6 6 11 6"></polygon>
                <polygon id="Shape" fill="#FFFFFF" transform="translate(9.500000, 24.500000) scale(-1, -1) translate(-9.500000, -24.500000) " points="13 21 13 28 11 28 11 23 6 23 6 21 11 21"></polygon>
                <rect id="@bounds" opacity="0.5" x="0" y="0" width="34" height="34"></rect>
            </g>
        </g>
    </g>
</svg>