<?xml version="1.0" encoding="UTF-8"?>
<svg width="82px" height="34px" viewBox="0 0 82 34" version="1.1" xmlns="http://www.w3.org/2000/svg" xmlns:xlink="http://www.w3.org/1999/xlink">
    <!-- Generator: Sketch 42 (36781) - http://www.bohemiancoding.com/sketch -->
    <title>sc/floor picker</title>
    <desc>Created with Sketch.</desc>
    <defs>
        <rect id="path-1" x="0" y="5.11764706" width="61" height="18.7647059"></rect>
        <mask id="mask-2" maskContentUnits="userSpaceOnUse" maskUnits="objectBoundingBox" x="0" y="0" width="61" height="18.7647059" fill="white">
            <use xlink:href="#path-1"></use>
        </mask>
    </defs>
    <g id="Symbols" stroke="none" stroke-width="1" fill="none" fill-rule="evenodd">
        <g id="sc/floor-picker">
            <g transform="translate(10.000000, 3.000000)">
                <use id="button" stroke="#FFFFFF" mask="url(#mask-2)" stroke-width="2.71999972" xlink:href="#path-1"></use>
                <path d="M7.40392786,17.9117647 L6.7287977,17.9117647 L6.7287977,12.0664526 L9.96545115,12.0664526 L9.96545115,12.6701749 L7.40392786,12.6701749 L7.40392786,14.8091914 L9.81056835,14.8091914 L9.81056835,15.4129138 L7.40392786,15.4129138 L7.40392786,17.9117647 Z M11.4864797,17.9117647 L10.827235,17.9117647 L10.827235,11.6906254 L11.4864797,11.6906254 L11.4864797,17.9117647 Z M16.6412971,15.716774 C16.6412971,16.4311158 16.462588,16.9888537 16.1051643,17.3900046 C15.7477407,17.7911555 15.2539739,17.9917279 14.6238493,17.9917279 C14.2346547,17.9917279 13.8891503,17.8997711 13.5873259,17.7158548 C13.2855015,17.5319384 13.0525178,17.2680624 12.8883676,16.9242188 C12.7242175,16.5803752 12.6421437,16.1778976 12.6421437,15.716774 C12.6421437,15.0024323 12.8195291,14.446027 13.1743051,14.0475416 C13.5290812,13.6490562 14.0215241,13.4498164 14.6516488,13.4498164 C15.2605928,13.4498164 15.7444312,13.6537206 16.1031786,14.0615352 C16.4619261,14.4693497 16.6412971,15.0210904 16.6412971,15.716774 Z M13.3252166,15.716774 C13.3252166,16.2765194 13.4364134,16.7029857 13.6588103,16.9961857 C13.8812072,17.2893857 14.2081788,17.4359835 14.6397347,17.4359835 C15.0712907,17.4359835 15.3989241,17.290052 15.6226448,16.9981848 C15.8463655,16.7063175 15.9582242,16.2791849 15.9582242,15.716774 C15.9582242,15.1596941 15.8463655,14.7365595 15.6226448,14.4473577 C15.3989241,14.1581559 15.0686431,14.0135572 14.631792,14.0135572 C14.2002361,14.0135572 13.8745883,14.1561569 13.6548389,14.4413605 C13.4350896,14.7265641 13.3252166,15.1516977 13.3252166,15.716774 Z M21.5538619,15.716774 C21.5538619,16.4311158 21.3751528,16.9888537 21.0177291,17.3900046 C20.6603055,17.7911555 20.1665388,17.9917279 19.5364141,17.9917279 C19.1472195,17.9917279 18.8017152,17.8997711 18.4998907,17.7158548 C18.1980663,17.5319384 17.9650826,17.2680624 17.8009325,16.9242188 C17.6367823,16.5803752 17.5547085,16.1778976 17.5547085,15.716774 C17.5547085,15.0024323 17.7320939,14.446027 18.0868699,14.0475416 C18.441646,13.6490562 18.934089,13.4498164 19.5642136,13.4498164 C20.1731576,13.4498164 20.656996,13.6537206 21.0157435,14.0615352 C21.3744909,14.4693497 21.5538619,15.0210904 21.5538619,15.716774 Z M18.2377814,15.716774 C18.2377814,16.2765194 18.3489782,16.7029857 18.5713751,16.9961857 C18.793772,17.2893857 19.1207436,17.4359835 19.5522995,17.4359835 C19.9838555,17.4359835 20.3114889,17.290052 20.5352096,16.9981848 C20.7589304,16.7063175 20.870789,16.2791849 20.870789,15.716774 C20.870789,15.1596941 20.7589304,14.7365595 20.5352096,14.4473577 C20.3114889,14.1581559 19.9812079,14.0135572 19.5443568,14.0135572 C19.1128009,14.0135572 18.7871531,14.1561569 18.5674038,14.4413605 C18.3476544,14.7265641 18.2377814,15.1516977 18.2377814,15.716774 Z M24.6952029,13.4498164 C24.8884764,13.4498164 25.0618905,13.4658089 25.2154502,13.4977944 L25.1241091,14.1135113 C24.9440735,14.0735294 24.7852209,14.0535388 24.6475466,14.0535388 C24.2954182,14.0535388 23.9942602,14.1974712 23.7440636,14.4853403 C23.4938671,14.7732093 23.3687707,15.1317076 23.3687707,15.5608457 L23.3687707,17.9117647 L22.7095259,17.9117647 L22.7095259,13.5297797 L23.2536014,13.5297797 L23.3290571,14.3414065 L23.360828,14.3414065 C23.5223305,14.0562028 23.7169249,13.8363062 23.944617,13.6817098 C24.1723091,13.5271135 24.4225019,13.4498164 24.6952029,13.4498164 Z M30.2828979,17.9117647 L29.6395385,17.9117647 L29.6395385,13.7456804 C29.6395385,13.3991713 29.6501287,13.0713254 29.6713093,12.7621327 C29.6157101,12.8181072 29.5534929,12.8767463 29.4846557,12.9380518 C29.4158186,12.9993572 29.100761,13.2592351 28.5394735,13.7176933 L28.1899943,13.2619029 L29.7269083,12.0664526 L30.2828979,12.0664526 L30.2828979,17.9117647 Z" id="Floor-1" fill="#FFFFFF"></path>
                <polygon id="Fill-4-Copy-6" fill="#FFFFFF" points="46.5972222 13.3958834 50.8333333 17.0588235 55.0694444 13.3958834 54.5043368 12.7941176 50.8333333 15.8548665 47.1623299 12.7941176"></polygon>
                <rect id="@bounds" opacity="0.5" x="0" y="0" width="61" height="29"></rect>
            </g>
        </g>
    </g>
</svg>