<?xml version="1.0" encoding="UTF-8"?>
<svg width="82px" height="34px" viewBox="0 0 82 34" version="1.1" xmlns="http://www.w3.org/2000/svg" xmlns:xlink="http://www.w3.org/1999/xlink">
    <!-- Generator: Sketch 42 (36781) - http://www.bohemiancoding.com/sketch -->
    <title>sc/vr</title>
    <desc>Created with Sketch.</desc>
    <defs></defs>
    <g id="Symbols" stroke="none" stroke-width="1" fill="none" fill-rule="evenodd">
        <g id="sc/vr" fill-rule="nonzero" fill="#FFFFFF">
            <path d="M55.0263429,10.1162524 C54.3361349,9.40104431 53.3744671,8.99704198 52.3693077,9.00001631 L30.749049,9.00001631 C29.7481046,9.00031588 28.7914616,9.40405077 28.1041465,10.1162524 C27.3926742,10.8405085 26.9967642,11.8071291 27.0000816,12.8118439 L27.0000816,24.1879524 C26.9935019,25.1910108 27.3849713,26.1574091 28.0920139,26.8835439 C28.7822218,27.5987519 29.7438897,28.0027543 30.749049,27.99978 L35.9417936,27.99978 C36.6409178,28.0073837 37.3274857,27.8177442 37.9194042,27.4535367 C38.5036004,27.0925757 38.9772887,26.5838182 39.2903858,25.981055 L40.6977652,23.249839 C40.8555054,22.9310685 41.1851694,22.728253 41.5470458,22.7273455 L41.5470458,22.7273455 C41.9089222,22.728253 42.2385862,22.9310685 42.3963264,23.249839 L43.8643688,26.0404294 C44.1761687,26.617 44.6361556,27.1040515 45.1989525,27.4535367 C45.7734244,27.8069404 46.4373885,27.99614 47.1159003,27.99978 L52.3086449,27.99978 C53.2926939,27.9865566 54.2293325,27.5838756 54.9050171,26.8835439 C55.6120597,26.1574091 56.003529,25.1910108 55.9969494,24.1879524 L55.9969494,12.8118439 C56.0365531,11.8250317 55.68933,10.8607154 55.0263429,10.1162524 L55.0263429,10.1162524 Z M34.9347894,21.3854873 C33.3114231,21.3658699 32.0097483,20.0653905 32.0230693,18.4764413 C32.0363903,16.8874921 33.3596936,15.6080943 34.9831702,15.6145528 C36.6066467,15.6210113 37.9192805,16.9108954 37.9194042,18.4998982 C37.9194643,19.2714165 37.603858,20.0108282 37.0430628,20.5530169 C36.4822676,21.0952057 35.7229924,21.3950122 34.9347894,21.3854873 L34.9347894,21.3854873 L34.9347894,21.3854873 Z M48.1957,21.3854873 C47.0021657,21.3902946 45.9234207,20.6902995 45.4632676,19.6124183 C45.0031144,18.5345371 45.2523478,17.291451 46.0945693,16.4637143 C46.9367906,15.6359776 48.2058177,15.3869146 49.3089811,15.8328441 C50.4121446,16.2787738 51.1317744,17.3317077 51.1317845,18.4998982 L51.1317845,18.4998982 C51.1317845,20.093565 49.8118228,21.3854873 48.1835674,21.3854873 L48.1835674,21.3854873 L48.1957,21.3854873 Z" id="Shape"></path>
        </g>
    </g>
</svg>