<?xml version="1.0" encoding="UTF-8"?>
<svg width="82px" height="34px" viewBox="0 0 82 34" version="1.1" xmlns="http://www.w3.org/2000/svg" xmlns:xlink="http://www.w3.org/1999/xlink">
    <!-- Generator: Sketch 42 (36781) - http://www.bohemiancoding.com/sketch -->
    <title>sc/dollhouse</title>
    <desc>Created with Sketch.</desc>
    <defs></defs>
    <g id="Symbols" stroke="none" stroke-width="1" fill="none" fill-rule="evenodd">
        <g id="sc/dollhouse">
            <g transform="translate(24.000000, 0.000000)">
                <path d="M28.9762484,13.0040091 L28.9762484,12.9322261 L28.9277556,12.7896433 L28.8802524,12.7424435 L28.8317595,12.6706605 L28.7842563,12.6234607 L28.7357635,12.5752775 L21.9507237,8.57312708 L17.4676096,6.07153721 C17.2756175,5.97615426 17.0598738,5.97615426 16.8678817,6.07153721 L10.1065935,9.81212206 L10.0105975,9.88292177 L9.96309431,9.907505 L9.89084986,10.0019046 L9.86709826,10.0264879 L9.81860542,10.1454707 L9.81860542,10.1690706 L9.79485382,10.3116534 L9.79485382,14.529153 L5.28699847,17.0779426 C5.11974764,17.1733256 5,17.3640915 5,17.5784573 L5.0475032,17.7692232 L5,25.3683924 C5,25.5827582 5.11974764,25.7735241 5.31173972,25.868907 L12.4560224,29.7284747 L12.5520185,29.7756745 L12.6005113,29.7992744 L12.7440106,29.8228743 L12.912251,29.7992744 L12.9597542,29.7756745 L13.0795019,29.7284747 L28.7120119,20.7939442 C28.904004,20.6985613 29,20.5087787 29,20.2944129 L29,13.0757922 L28.9762484,13.0040091 L28.9762484,13.0040091 L28.9762484,13.0040091 L28.9762484,13.0040091 L28.9762484,13.0040091 L28.9762484,13.0040091 L28.9762484,13.0040091 M28.5121987,13.1941597 L28.5121987,13.1251581 L28.4655848,12.9881001 L28.4199222,12.9427291 L28.3733084,12.8737275 L28.3276458,12.8283566 L28.2810319,12.7820404 L21.7588955,8.93496329 L17.4494909,6.53030378 C17.264938,6.43861669 17.0575539,6.43861669 16.873001,6.53030378 L10.3736958,10.1259503 L10.2814194,10.1940067 L10.2357568,10.2176374 L10.1663117,10.3083793 L10.1434804,10.33201 L10.0968665,10.4463825 L10.0968665,10.469068 L10.0740353,10.606126 L10.0740353,14.660208 L5.74084805,17.1102385 C5.58007777,17.2019256 5.46497005,17.3852997 5.46497005,17.5913594 L5.51063262,17.7747336 L5.46497005,25.079454 C5.46497005,25.2855136 5.58007777,25.4688878 5.76463064,25.5605749 L12.6320902,29.270594 L12.7243667,29.3159649 L12.7709805,29.3386504 L12.9089195,29.3613359 L13.0706411,29.3386504 L13.1163037,29.3159649 L13.2314114,29.270594 L28.2582006,20.6822543 C28.4427535,20.5905672 28.5350299,20.4081382 28.5350299,20.2020786 L28.5350299,13.2631613 L28.5121987,13.1941597 L28.5121987,13.1941597 L28.5121987,13.1941597 L28.5121987,13.1941597 L28.5121987,13.1941597 L28.5121987,13.1941597 L28.5121987,13.1941597" id="shadow"></path>
                <path d="M28.9762484,13.0040091 L28.9762484,12.9322261 L28.9277556,12.7896433 L28.8802524,12.7424435 L28.8317595,12.6706605 L28.7842563,12.6234607 L28.7357635,12.5752775 L21.9507237,8.57312708 L17.4676096,6.07153721 C17.2756175,5.97615426 17.0598738,5.97615426 16.8678817,6.07153721 L10.1065935,9.81212206 L10.0105975,9.88292177 L9.96309431,9.907505 L9.89084986,10.0019046 L9.86709826,10.0264879 L9.81860542,10.1454707 L9.81860542,10.1690706 L9.79485382,10.3116534 L9.79485382,14.529153 L5.28699847,17.0779426 C5.11974764,17.1733256 5,17.3640915 5,17.5784573 L5.0475032,17.7692232 L5,25.3683924 C5,25.5827582 5.11974764,25.7735241 5.31173972,25.868907 L12.4560224,29.7284747 L12.5520185,29.7756745 L12.6005113,29.7992744 L12.7440106,29.8228743 L12.912251,29.7992744 L12.9597542,29.7756745 L13.0795019,29.7284747 L28.7120119,20.7939442 C28.904004,20.6985613 29,20.5087787 29,20.2944129 L29,13.0757922 L28.9762484,13.0040091 L28.9762484,13.0040091 L28.9762484,13.0040091 L28.9762484,13.0040091 Z M10.7063214,15.3866161 L10.7063214,15.3866161 L13.8949734,13.5999067 L13.8949734,17.9354058 L10.7538246,19.8174982 L6.82194549,17.5784573 L10.7063214,15.3866161 L10.7063214,15.3866161 L10.7063214,15.3866161 L10.7063214,15.3866161 Z M20.9680013,16.4584451 L17.7569298,14.4809698 C17.7071049,14.3855869 17.7546081,7.5720978 17.7546081,7.5720978 L21.3519855,9.57317303 L27.2018061,13.0521923 L20.9680013,16.4584451 Z M16.5569129,14.43377 L15.0934394,15.2676333 L15.0934394,12.8368431 L15.0696878,12.6706605 L15.0696878,12.5988774 C15.0696878,12.3845116 14.9499402,12.1937457 14.7579481,12.0983628 L11.5692961,10.3362366 L16.556142,7.5720978 L16.5569129,14.43377 Z M10.9933199,11.3126826 L13.271494,12.5752775 L10.9933199,13.8850722 L10.9933199,11.3126826 L10.9933199,11.3126826 L10.9933199,11.3126826 Z M6.24596924,18.6021031 L12.1680343,21.9857394 L12.1680343,28.2269308 L6.19846604,25.0350437 L6.24596924,18.6021031 L6.24596924,18.6021031 L6.24596924,18.6021031 Z M20.0565338,24.3673631 L13.3437384,28.2033309 L13.3437384,22.0093393 L27.7767927,14.0758381 L27.7767927,19.960081 L22.2624634,23.1293514 L20.0565338,24.3673631 L20.0565338,24.3673631 L20.0565338,24.3673631 Z" id="Dollhouse-View-Copy-2" fill="#FFFFFF"></path>
                <polygon id="Path" points="6.24596924 18.6021031 12.1680343 21.9857394 12.1680343 28.2269308 6.19846604 25.0350437 6.24596924 18.6021031"></polygon>
                <polygon id="Path" points="20.0565338 24.3673631 13.3437384 28.2033309 13.3437384 22.0093393 27.7767927 14.0758381 27.7767927 19.960081 22.2624634 23.1293514 20.0565338 24.3673631"></polygon>
                <path d="M20.9680013,16.4584451 L17.7569298,14.4809698 C17.7071049,14.3855869 17.7546081,7.5720978 17.7546081,7.5720978 L21.3519855,9.57317303 L27.2018061,13.0521923 L20.9680013,16.4584451 Z" id="Path"></path>
                <path d="M16.5569129,14.43377 L15.0934394,15.2676333 L15.0934394,12.8368431 L15.0696878,12.6706605 L15.0696878,12.5988774 C15.0696878,12.3845116 14.9499402,12.1937457 14.7579481,12.0983628 L11.5692961,10.3362366 L16.556142,7.5720978 L16.5569129,14.43377 Z" id="Path"></path>
                <polygon id="Path" points="10.9933199 11.3126826 13.271494 12.5752775 10.9933199 13.8850722 10.9933199 11.3126826"></polygon>
                <polygon id="Path" points="10.7063214 15.3866161 10.7063214 15.3866161 13.8949734 13.5999067 13.8949734 17.9354058 10.7538246 19.8174982 6.82194549 17.5784573 10.7063214 15.3866161 10.7063214 15.3866161"></polygon>
                <rect id="@bounds" opacity="0.5" x="0" y="0" width="34" height="34"></rect>
            </g>
        </g>
    </g>
</svg>