<?xml version="1.0" encoding="UTF-8" standalone="no"?>
<svg width="84px" height="84px" viewBox="0 0 84 84" version="1.1" xmlns="http://www.w3.org/2000/svg" xmlns:xlink="http://www.w3.org/1999/xlink">
    <!-- Generator: Sketch 47 (45396) - http://www.bohemiancoding.com/sketch -->
    <title>Artboard Copy</title>
    <desc>Created with Sketch.</desc>
    <defs></defs>
    <g id="Pause" stroke="none" stroke-width="1" fill="none" fill-rule="evenodd">
        <g id="Artboard-Copy">
            <path d="M42,0 C18.7894737,0 0,18.7894737 0,42 C0,65.2105263 18.7894737,84 42,84 C65.2105263,84 84,65.2105263 84,42 C84,18.7894737 65.2105263,0 42,0 Z" id="Shape" fill-opacity="0.25" fill="#000000" fill-rule="nonzero"></path>
            <path d="M51.5,57 L49.5,57 L49.5,57 C49.2238576,57 49,56.7761424 49,56.5 L49,28.5 L49,28.5 C49,28.2238576 49.2238576,28 49.5,28 L51.5,28 L51.5,28 C51.7761424,28 52,28.2238576 52,28.5 L52,56.5 L52,56.5 C52,56.7761424 51.7761424,57 51.5,57 Z" id="Path" fill="#FFFFFF"></path>
            <path d="M34.5,57 L32.5,57 L32.5,57 C32.2238576,57 32,56.7761424 32,56.5 L32,28.5 L32,28.5 C32,28.2238576 32.2238576,28 32.5,28 L34.5,28 L34.5,28 C34.7761424,28 35,28.2238576 35,28.5 L35,56.5 L35,56.5 C35,56.7761424 34.7761424,57 34.5,57 Z" id="Path" fill="#FFFFFF"></path>
        </g>
    </g>
</svg>